<svg width="100%" viewBox="0 0 320 90" fill="none" xmlns="http://www.w3.org/2000/svg">
<path d="M0 89.1383V4.95461C33.6111 10.2381 67.2222 15.5217 94 16.6281C120.778 17.7345 140.722 14.6638 161.111 10.5669C181.5 6.46992 202.333 1.34674 228.889 0.240326C255.444 -0.866088 287.722 2.04426 320 4.95461V89.1383H0Z" fill="url(#paint0_linear_21_73)" fill-opacity="0.53"/>
<path d="M0 88.3904V41.9213C23.9921 46.1775 47.9841 50.4337 74 53.483C100.016 56.5322 128.056 58.3745 158 54.3723C187.944 50.3702 219.794 40.5237 247.111 37.4745C274.429 34.4252 297.214 38.1733 320 41.9213V88.3904H0Z" fill="url(#paint1_linear_21_73)"/>
<defs>
<linearGradient id="paint0_linear_21_73" x1="960" y1="2941.56" x2="13623.6" y2="19385.1" gradientUnits="userSpaceOnUse">
<stop offset="0.05" stop-color="#2377AA"/>
<stop offset="0.95" stop-color="#7BDCB5"/>
</linearGradient>
<linearGradient id="paint1_linear_21_73" x1="960" y1="1753.52" x2="6679.07" y2="14474.7" gradientUnits="userSpaceOnUse">
<stop offset="0.05" stop-color="#2377AA"/>
<stop offset="0.95" stop-color="#7BDCB5"/>
</linearGradient>
</defs>
</svg>
